<svg xmlns="http://www.w3.org/2000/svg" version="1.1" xmlns:xlink="http://www.w3.org/1999/xlink" xmlns:svgjs="http://svgjs.dev/svgjs" width="1440" height="560" preserveAspectRatio="none" viewBox="0 0 1440 560"><g mask="url(&quot;#SvgjsMask1011&quot;)" fill="none"><path d="M-73.91 160.09C39.82 160.3 150.85 230.09 375.6 230.09 600.36 230.09 580.64 152.04 825.12 160.09 1069.59 168.14 1118.98 578.7 1274.63 616.17" stroke="rgba(78, 64, 106, 1)" stroke-width="2"></path><path d="M-4.18 283.88C146.56 277.94 259.39 28.99 544.1 31.88 828.8 34.77 902.07 545.17 1092.37 591.51" stroke="rgba(78, 64, 106, 1)" stroke-width="2"></path><path d="M-222.79 377.08C-35.23 374.87 133.48 163.8 496.69 164.28 859.9 164.76 1009.26 563.01 1216.17 577.35" stroke="rgba(78, 64, 106, 1)" stroke-width="2"></path><path d="M-209.63 281.86C-57.48 278.7 131.28 68.15 362.76 74.66 594.23 81.17 519.51 542.27 648.95 629.46" stroke="rgba(78, 64, 106, 1)" stroke-width="2"></path><path d="M-263.51 303.34C-160.06 303.59-59.59 373.34 144.33 373.34 348.25 373.34 341.22 301.52 552.17 303.34 763.12 305.16 836.22 575.74 960.01 589.54" stroke="rgba(78, 64, 106, 1)" stroke-width="2"></path></g><defs><mask id="SvgjsMask1011"><rect width="1440" height="560" fill="#ffffff"></rect></mask></defs></svg>