<svg xmlns="http://www.w3.org/2000/svg" version="1.1" xmlns:xlink="http://www.w3.org/1999/xlink" xmlns:svgjs="http://svgjs.dev/svgjs" width="1440" height="560" preserveAspectRatio="none" viewBox="0 0 1440 560"><g mask="url(&quot;#SvgjsMask1074&quot;)" fill="none"><path d="M820.48 570.22C959.97 540.58 1018.1 179.76 1233.82 177.12 1449.54 174.48 1537.62 320.61 1647.16 322.72" stroke="rgba(78, 64, 106, 1)" stroke-width="2"></path><path d="M542.22 567.66C667.47 540.18 628.89 212.24 910.97 211.15 1193.06 210.06 1461.07 345 1648.48 345.55" stroke="rgba(78, 64, 106, 1)" stroke-width="2"></path><path d="M36.26 586.17C169.8 578.06 266.71 331.21 506.26 330.32 745.81 329.43 741.27 400.32 976.27 400.32 1211.27 400.32 1327.47 330.51 1446.27 330.32" stroke="rgba(78, 64, 106, 1)" stroke-width="2"></path><path d="M752.72 565.71C844.1 565.65 919.16 530.96 1115.95 524.91 1312.73 518.86 1367.83 275.06 1479.17 261.71" stroke="rgba(78, 64, 106, 1)" stroke-width="2"></path><path d="M906.89 625.11C1025.68 543.26 961.88 113.71 1167.86 110.45 1373.84 107.19 1544.44 361.16 1689.79 368.05" stroke="rgba(78, 64, 106, 1)" stroke-width="2"></path></g><defs><mask id="SvgjsMask1074"><rect width="1440" height="560" fill="#ffffff"></rect></mask></defs></svg>